<?xml version="1.0" encoding="utf-8"?>
<!-- Generator: Adobe Illustrator 22.0.1, SVG Export Plug-In . SVG Version: 6.00 Build 0)  -->
<svg version="1.1" id="圖層_1" xmlns="http://www.w3.org/2000/svg" xmlns:xlink="http://www.w3.org/1999/xlink" x="0px" y="0px"
	 viewBox="0 0 85 55" style="enable-background:new 0 0 85 55;" xml:space="preserve">
<style type="text/css">
	.st0{fill:#3B801C;}
	.st1{fill:#B81C22;}
	.st2{fill:#19388F;}
</style>
<g>
	<path class="st0" d="M80.8,47.4l-0.1,0l-0.1,0l-0.1,0l-0.1,0l-0.1,0l-0.1,0l-0.1,0l-0.1,0l-0.1,0.1l-0.1,0.1l-0.1,0.1l-0.1,0.1
		l-0.1,0.1L79.1,48L79,48.1l-0.1,0.1l-0.1,0.1l-0.1,0.1l-0.1,0.1l-0.1,0.1l-0.1,0.1l-0.1,0.1l-0.1,0.1L78.3,49l0,0.1l0,0.1l0,0.1
		l0,0.1l0,0.1l0,0.1l0,0.1l0,0.1l0,0.1l0,0.1l0,0.1l0,0.1l0,0.1l0,0.1l0,0.1l0,0.1l0.1,0.1l0.1,0.1l0.1,0.1l0.1,0.1l0.1,0.1l0.1,0.1
		l0.1,0.1l0.1,0.1l0.1,0.1l0.1,0.1l0.1,0.1l0.1,0.1l0.1,0.1l0.1,0.1l0.1,0.1l0.1,0.1l0.1,0.1l0.1,0l0.1,0l0.1,0l0.1,0l0.1,0l0.1,0
		l0.1,0l0.1,0l0.1,0l0.1,0l0.1,0l0.1,0l0.1,0l0.1,0l0.1-0.1l0.1-0.1l0.1-0.1l0.1-0.1l0.1-0.1l0.1-0.1l0.1-0.1l0.1-0.1l0.1-0.1
		l0.1-0.1l0.1-0.1l0.1-0.1l0.1-0.1l0.1-0.1l0.1-0.1l0.1-0.1l0.1-0.1l0-0.1l0-0.1l0-0.1l0-0.1l0-0.1l0-0.1l0-0.1l0-0.1l0-0.1l0-0.1
		l0-0.1l0-0.1l0-0.1l0-0.1l0-0.1l0-0.1l-0.1-0.1l-0.1-0.1l-0.1-0.1l-0.1-0.1L83,48.5l-0.1-0.1l-0.1-0.1l-0.1-0.1l-0.1-0.1L82.5,48
		l-0.1-0.1l-0.1-0.1l-0.1-0.1l-0.1-0.1L82,47.6l-0.1-0.1l-0.1,0l-0.1,0l-0.1,0l-0.1,0l-0.1,0l-0.1,0l-0.1,0L80.8,47.4L80.8,47.4z
		 M80.8,46.7l0.2,0l0.2,0l0.2,0l0.2,0l0.2,0l0.2,0l0.2,0.1l0.2,0.1l0.2,0.1l0.1,0.1l0.1,0.1l0.1,0.1l0.1,0.1l0.1,0.1l0.1,0.1
		l0.1,0.1l0.1,0.1l0.1,0.1l0.1,0.1l0.1,0.1l0.1,0.1l0.1,0.1l0.1,0.1l0.1,0.2l0.1,0.2l0.1,0.2l0.1,0.2l0,0.2l0,0.2l0,0.2l0,0.2v0.2
		v0.2l0,0.2l0,0.2l0,0.2l0,0.2l-0.1,0.2L84,51.3L84,51.4l-0.1,0.2l-0.1,0.1l-0.1,0.1L83.7,52l-0.1,0.1l-0.1,0.1l-0.1,0.1l-0.1,0.1
		l-0.1,0.1L83,52.7l-0.1,0.1l-0.1,0.1L82.6,53l-0.1,0.1l-0.1,0.1l-0.2,0.1L82,53.3l-0.2,0.1l-0.2,0l-0.2,0l-0.2,0l-0.2,0l-0.2,0
		l-0.2,0l-0.2,0l-0.2,0l-0.2,0l-0.2,0l-0.2,0l-0.2,0l-0.2-0.1l-0.1-0.1l-0.2-0.1l-0.1-0.1L79,53l-0.1-0.1l-0.1-0.1l-0.1-0.1
		l-0.1-0.1l-0.1-0.1l-0.1-0.1l-0.1-0.1L78,52.1L77.9,52l-0.1-0.1l-0.1-0.1l-0.1-0.1l-0.1-0.2l-0.1-0.2l0-0.2l0-0.2l0-0.2l0-0.2
		l0-0.2l0-0.2l0-0.2l0-0.2l0-0.2l0-0.2l0-0.2l0-0.2l0-0.2l0-0.2l0.1-0.2l0.1-0.2l0.1-0.1l0.1-0.1l0.1-0.1L78,48l0.1-0.1l0.1-0.1
		l0.1-0.1l0.1-0.1l0.1-0.1l0.1-0.1l0.1-0.1l0.1-0.1l0.1-0.1l0.1-0.1l0.2-0.1l0.1-0.1l0.2-0.1l0.2,0l0.2,0l0.2,0l0.2,0l0.2,0
		L80.8,46.7L80.8,46.7z M80,49.8h0.6h0.1l0.1,0h0.1l0.1,0l0.1,0l0.1,0l0,0l0,0l0,0l0,0l0,0l0,0l0,0l0,0l0,0l0,0l0,0l0,0l0,0v0l0,0
		l0,0v0v0v0l0,0l0,0l0,0l0,0l0,0l0,0l0,0l0,0l0,0l0,0l0,0l0,0l0,0l0,0l0,0l-0.1,0l-0.1,0l-0.2,0h-0.2H80V49.8L80,49.8z M79.2,51.9
		v-3.7h1.6h0.1l0.1,0l0.1,0l0.1,0l0.1,0l0.1,0l0.1,0l0.1,0l0.1,0l0.1,0l0,0l0.1,0l0.1,0l0,0.1l0.1,0l0,0.1l0,0.1l0,0.1l0,0.1l0,0.1
		l0,0.1l0,0.1l0,0.1v0.1v0.1l0,0.1l0,0.1l0,0.1l0,0l0,0l0,0l0,0l0,0l0,0l0,0l0,0l0,0l0,0l0,0l0,0l0,0l0,0l0,0l0,0l-0.1,0l-0.1,0
		l-0.1,0l-0.1,0l0.1,0.1l0.1,0.1l0,0l0,0l0,0l0.1,0l0,0l0,0.1l0.1,0.1l0,0.1L82,51l0.1,0.2l0.4,0.7h-0.9l-0.5-0.8L81,50.9l-0.1-0.2
		l-0.1-0.1l-0.1-0.1l-0.1-0.1l-0.1,0l-0.1,0l-0.1,0l-0.1,0l-0.1,0l-0.1,0l-0.1,0H80v1.5H79.2L79.2,51.9z"/>
	<path class="st0" d="M12.4,17.1H3c-1.3,0-2.3,1-2.3,2.3v31.9c0,1.3,1,2.3,2.3,2.3h9.4c1.3,0,2.3-1,2.3-2.3V19.4
		C14.7,18.1,13.7,17.1,12.4,17.1L12.4,17.1z"/>
	<path class="st1" d="M12.4,3H3C1.8,3,0.8,4,0.8,5.3v7.3c0,1.3,1,2.3,2.3,2.3h9.4c1.3,0,2.3-1,2.3-2.3V5.3C14.7,4,13.7,3,12.4,3
		L12.4,3z"/>
	<path class="st0" d="M20.1,6.7v43c0,2.1,1.7,3.7,3.7,3.7H53V39.9H34v-4.6h19V21.7H34v-4.7h19.5V3H23.8C21.7,3,20.1,4.7,20.1,6.7
		L20.1,6.7z"/>
	<path class="st0" d="M71.3,21.7H61.2c-1,0-1.9,0.8-1.9,1.9v28c0,1,0.8,1.9,1.9,1.9h10.2c1,0,1.9-0.8,1.9-1.9v-28
		C73.2,22.6,72.4,21.7,71.3,21.7L71.3,21.7z"/>
	<path class="st2" d="M66.3,1.5c-4.5,0-8.1,3.4-8.1,7.6c0,4.2,3.6,7.6,8.1,7.6c4.5,0,8.1-3.4,8.1-7.6C74.4,4.9,70.8,1.5,66.3,1.5
		L66.3,1.5z"/>
</g>
</svg>
